<svg version="1.1" id="Layer_1"
	xmlns="http://www.w3.org/2000/svg" x="0" y="0" viewBox="0 0 512 152" xml:space="preserve">
	<style>.st0{fill:#131719}.st1{fill:#1d6cb6}</style>
	<g id="XMLID_288_">
		<path id="XMLID_289_" class="st0" d="M206.3 107c-3.6 0-7.1 1.8-9.6 5h-.1l.6-4.6h-7.9c-.4 3.1-1 8.2-1.7 11.8l-5.8 30.4h8.8L193 137h.2c1 .6 3.1 1.2 5.5 1.2 10.4 0 17.3-9.5 17.3-19.8-.1-6.2-3.2-11.4-9.7-11.4zm-7.9 24.5c-1.8 0-3.1-.5-4-1.4l1.1-6.5c1.1-5.9 4.1-9.5 7.4-9.5 2.8 0 3.8 2.5 3.8 4.9 0 5.9-3.6 12.5-8.3 12.5zM23.3 107c-3.7 0-7 1.6-9.2 4.3H14l3.5-17.1H8.6l-6 30.2c-.4 1.8-.7 3.6-.7 5.4 0 5.3 3.5 8.4 10.6 8.4 13.4 0 19.8-11.1 19.8-20.7 0-5.4-2.8-10.5-9-10.5zm-8.9 24.5c-2.1 0-3.3-1.2-3.4-3.3-.1-1.2.1-2.3.3-3.3l.5-2.4c1-5.2 4.1-8.4 7.3-8.4 2.7 0 3.9 2.2 3.9 5.1.1 5.3-3.5 12.3-8.6 12.3zM53.8 107c-10.6 0-17.8 8.5-17.8 18.8 0 7.4 5.1 12.3 12.7 12.3h.1c10.2 0 17.8-8 17.8-18.8-.1-6.8-4.7-12.3-12.8-12.3zm-3.9 24.5c-3 0-4.8-2.3-4.8-5.8 0-4.6 2.6-12 7.6-12 3.5 0 4.7 2.9 4.7 5.7 0 5.1-2.8 12.1-7.5 12.1zm129.2-27.7c3 0 5.6-2 5.6-5.3 0-2.8-2-4.6-4.7-4.6-2.9 0-5.4 2.1-5.4 5.3.1 2.7 2 4.6 4.5 4.6zm-12 3.2c-4.1 0-7.4 2.8-9.5 6.8h-.2c.2-2.1.4-4.1.5-6.2h-7.6c-.3 2.6-.7 7.6-1.5 12.1l-3.4 17.8h8.8l2.1-11.1c1.1-5.9 3.8-10.8 9.3-10.8.5 0 1 0 1.3.1l1.7-8.6c-.4 0-.9-.1-1.5-.1zm-28.8 7.4h6.3l1.3-6.7h-6.4l1.5-8.1-9 2.4-1.1 5.6h-3.8l-1.2 6.7h3.8l-2.3 11.8c-.5 2.3-.7 3.9-.7 5.5 0 3.8 2.5 6.5 7.8 6.5 1.8 0 4-.2 5.2-.7l1-6.9c-.7.1-1.6.1-2.4.1-2 0-2.6-1-2.6-2.5 0-1 .2-2.6.5-3.8l2.1-9.9zm35.4-6.7l-5.7 29.8h8.8l5.6-29.8h-8.7zM70 127.8c0 6.2 3.7 10.4 9 10.4 3.5 0 7.3-1.6 10.1-6.6h.1c-.1 2.1-.3 4.2-.4 5.9H97c-.1-3.7.5-9.6 1.2-13.4l3-15.6c-2.4-.8-6.2-1.5-9.8-1.5-14.7 0-21.4 10.7-21.4 20.8zm20.1-7c-1.3 7.3-4.7 10.3-7.3 10.3-2.4 0-3.6-2-3.6-4.9 0-5.6 4.1-12.5 9.8-12.5.9 0 1.6.1 2.3.2l-1.2 6.9zm29.7-21.2l-9 2.4-1.1 5.6h-3.8l-1.2 6.7h3.8l-2.3 11.8c-.5 2.3-.7 3.9-.7 5.5 0 3.8 2.5 6.5 7.8 6.5 1.8 0 4-.2 5.2-.7l1-6.9c-.7.1-1.6.1-2.4.1-2 0-2.6-1-2.6-2.5 0-1 .2-2.6.5-3.8l2-10.1h6.3l1.3-6.7h-6.4l1.6-7.9z"/>
	</g>
	<g id="XMLID_215_">
		<path id="XMLID_216_" class="st1" d="M331.9 107.9H321l-7.6 9.1c-.9 1-1.8 2.2-2.7 3.4h-.1l4.9-25.9h-8.7l-8.2 43.3h8.7l1.8-9.6 3.3-3.2 5.2 12.7h9.8l-8.3-17.5 12.8-12.3zm-94.5-8.1l-9 2.4-1.1 5.6h-3.8l-1.2 6.7h3.8l-2.3 11.8c-.5 2.3-.7 3.9-.7 5.5 0 3.8 2.5 6.5 7.8 6.5 1.8 0 4-.2 5.2-.7l1-6.9c-.7.1-1.6.1-2.4.1-2 0-2.6-1-2.6-2.5 0-1 .2-2.6.5-3.8l2-10.1h6.3l1.3-6.7h-6.4l1.6-7.9zm120.7 16.4c0-5.6-4.3-9-10.4-9-10.8 0-17.4 9.5-17.4 18.5 0 7.8 4.4 12.6 12.9 12.6 3.3 0 7.6-.6 11.1-2.4l-.6-6.3c-2.4 1.2-5.1 1.9-8.4 1.9-2.6 0-4.6-.8-5.7-2.3-.6-.9-.9-2.2-.9-3 12 .3 19.4-2.5 19.4-10zm-11.5-2.6c2 0 3.2 1 3.2 2.5v.1c0 2.7-3.4 3.7-10.2 3.6.6-2.8 2.9-6.2 7-6.2zm-49-6.4c-4.1 0-7.4 2.8-9.5 6.8h-.2c.2-2.1.4-4.1.5-6.2h-7.6c-.3 2.6-.7 7.6-1.5 12.1l-3.4 17.8h8.8l2.1-11.1c1.1-5.9 3.8-10.8 9.3-10.8.5 0 1 0 1.3.1l1.7-8.6c-.4 0-.9-.1-1.5-.1zm-34.8 14.5c-1.1 5.9-4.2 9.5-7.2 9.5-2.2 0-3-1.5-3-3.4 0-1.1.2-2.6.4-4l3-16h-8.8l-3.2 16.7c-.4 2.1-.6 3.9-.6 5.5 0 5.7 2.9 8.4 7.7 8.4 3.6 0 7.2-1.6 10.2-5.5l.1.1-.5 4.8h7.7c.4-2.7.9-5.9 1.6-9.7L274 108h-8.8l-2.4 13.7zm239.8-14.5c-3.9 0-7.6 1.8-10.3 5.7-.2-2.6-2.3-5.7-7.1-5.7-3.8 0-7.4 1.7-10.2 5.6l.5-4.9h-7.6c-.4 2.7-.8 5.9-1.5 9.7l-3.7 20.1h8.5l2.5-13.4c1-5.9 4.1-10 7.1-10 2.1 0 2.8 1.6 2.8 3.7 0 1-.2 2.2-.4 3.4l-3.1 16.4h8.5l2.5-13.5c1.2-6 4.1-9.9 7-9.9 2 0 2.9 1.5 2.9 3.5 0 1.2-.2 2.4-.4 3.6l-3 16.3h8.5l3.2-17.3c.2-1.5.5-3.9.5-5.1.1-5.2-2.6-8.2-7.2-8.2zm-55.3 0c-10.6 0-17.8 8.5-17.8 18.8 0 7.4 5.1 12.3 12.7 12.3h.1c10.3 0 17.8-8 17.8-18.8-.1-6.8-4.7-12.3-12.8-12.3zm-4 24.5c-3.1 0-4.8-2.3-4.8-5.8 0-4.6 2.6-12 7.6-12 3.5 0 4.7 2.9 4.7 5.7 0 5.1-2.7 12.1-7.5 12.1zm-61.9-23.8L376 121c-1.3 3.2-2 5.2-2.6 7h-.1c-.2-1.9-.5-4-1-7.1l-1.8-13h-9.2l5.9 27.1c.1.6.1 1-.1 1.4-1.2 2-2.9 3.8-4.9 5.2-1.7 1.2-3.7 2-5.1 2.4l2 7.5c2-.3 6.1-1.8 9.6-5.1 4-3.7 7.5-9.2 11.5-17.1l10.7-21.4h-9.5zm22.2 18.2c0 7.7 5.2 12.3 12.6 12.3 3.5 0 6.6-.7 8.5-1.6l-.1-6.6c-1.5.6-3.4 1.2-5.9 1.2-3.2 0-5.9-2.1-5.9-6.2 0-5.6 3.9-10.9 10.1-10.9 1.8 0 3 .3 4 .7l2.2-6.7c-1.3-.5-3.5-1-6.1-1-11.3-.1-19.4 8.2-19.4 18.8zm-10.5.9c-3.5 0-5.9 2.9-5.9 6.2 0 2.9 2 5.1 4.9 5.1h.1c3.5 0 6-2.5 6-6 0-3.1-2.1-5.3-5.1-5.3z"/>
	</g>
	<path id="XMLID_2_" class="st0" d="M21.2 94.8S62.9 67.6 82.6 0c0 0 14.8 31.5 11.8 92.9-.1 0-10.2 7.5-73.2 1.9z"/>
	<path id="XMLID_1_" class="st1" d="M97.6 99.4s3.6-35.4-3.9-70.2c0 0 33.8 13.1 49.9 54.5-.1 0-9.9 15.7-46 15.7z"/>
</svg>